<svg xmlns="http://www.w3.org/2000/svg" xmlns:xlink="http://www.w3.org/1999/xlink" width="500" zoomAndPan="magnify" viewBox="0 0 375 374.999991" height="500" preserveAspectRatio="xMidYMid meet" version="1.0"><defs><g/></defs><g fill="#000000" fill-opacity="1"><g transform="translate(11.602697, 230.129308)"><g><path d="M 15.4375 -87.828125 L 37.578125 -87.703125 C 49.140625 -87.703125 59.304688 -83.535156 68.078125 -75.203125 C 76.859375 -66.867188 81.25 -56.617188 81.25 -44.453125 C 81.25 -32.285156 76.957031 -21.851562 68.375 -13.15625 C 59.800781 -4.46875 49.414062 -0.125 37.21875 -0.125 L 15.3125 -0.125 C 10.445312 -0.125 7.414062 -1.117188 6.21875 -3.109375 C 5.257812 -4.785156 4.78125 -7.335938 4.78125 -10.765625 L 4.78125 -77.296875 C 4.78125 -79.210938 4.835938 -80.609375 4.953125 -81.484375 C 5.078125 -82.359375 5.460938 -83.394531 6.109375 -84.59375 C 7.222656 -86.75 10.332031 -87.828125 15.4375 -87.828125 Z M 37.578125 -21.296875 C 43.316406 -21.296875 48.5 -23.429688 53.125 -27.703125 C 57.75 -31.972656 60.0625 -37.335938 60.0625 -43.796875 C 60.0625 -50.253906 57.804688 -55.65625 53.296875 -60 C 48.796875 -64.351562 43.515625 -66.53125 37.453125 -66.53125 L 25.96875 -66.53125 L 25.96875 -21.296875 Z M 37.578125 -21.296875 "/></g></g></g><g fill="#000000" fill-opacity="1"><g transform="translate(90.2118, 230.129308)"><g><path d="M 45.953125 -88.78125 C 57.753906 -88.78125 68.003906 -84.507812 76.703125 -75.96875 C 85.398438 -67.4375 89.75 -56.847656 89.75 -44.203125 C 89.75 -31.566406 85.597656 -20.800781 77.296875 -11.90625 C 69.003906 -3.007812 58.796875 1.4375 46.671875 1.4375 C 34.546875 1.4375 24.234375 -2.945312 15.734375 -11.71875 C 7.234375 -20.5 2.984375 -30.953125 2.984375 -43.078125 C 2.984375 -49.691406 4.179688 -55.890625 6.578125 -61.671875 C 8.972656 -67.460938 12.164062 -72.3125 16.15625 -76.21875 C 20.144531 -80.125 24.726562 -83.191406 29.90625 -85.421875 C 35.09375 -87.660156 40.441406 -88.78125 45.953125 -88.78125 Z M 24.171875 -43.671875 C 24.171875 -36.578125 26.460938 -30.816406 31.046875 -26.390625 C 35.640625 -21.960938 40.765625 -19.75 46.421875 -19.75 C 52.085938 -19.75 57.191406 -21.898438 61.734375 -26.203125 C 66.285156 -30.515625 68.5625 -36.296875 68.5625 -43.546875 C 68.5625 -50.804688 66.265625 -56.628906 61.671875 -61.015625 C 57.085938 -65.410156 51.960938 -67.609375 46.296875 -67.609375 C 40.640625 -67.609375 35.535156 -65.394531 30.984375 -60.96875 C 26.441406 -56.539062 24.171875 -50.773438 24.171875 -43.671875 Z M 24.171875 -43.671875 "/></g></g></g><g fill="#000000" fill-opacity="1"><g transform="translate(177.315999, 230.129308)"><g><path d="M 45.953125 -88.78125 C 57.753906 -88.78125 68.003906 -84.507812 76.703125 -75.96875 C 85.398438 -67.4375 89.75 -56.847656 89.75 -44.203125 C 89.75 -31.566406 85.597656 -20.800781 77.296875 -11.90625 C 69.003906 -3.007812 58.796875 1.4375 46.671875 1.4375 C 34.546875 1.4375 24.234375 -2.945312 15.734375 -11.71875 C 7.234375 -20.5 2.984375 -30.953125 2.984375 -43.078125 C 2.984375 -49.691406 4.179688 -55.890625 6.578125 -61.671875 C 8.972656 -67.460938 12.164062 -72.3125 16.15625 -76.21875 C 20.144531 -80.125 24.726562 -83.191406 29.90625 -85.421875 C 35.09375 -87.660156 40.441406 -88.78125 45.953125 -88.78125 Z M 24.171875 -43.671875 C 24.171875 -36.578125 26.460938 -30.816406 31.046875 -26.390625 C 35.640625 -21.960938 40.765625 -19.75 46.421875 -19.75 C 52.085938 -19.75 57.191406 -21.898438 61.734375 -26.203125 C 66.285156 -30.515625 68.5625 -36.296875 68.5625 -43.546875 C 68.5625 -50.804688 66.265625 -56.628906 61.671875 -61.015625 C 57.085938 -65.410156 51.960938 -67.609375 46.296875 -67.609375 C 40.640625 -67.609375 35.535156 -65.394531 30.984375 -60.96875 C 26.441406 -56.539062 24.171875 -50.773438 24.171875 -43.671875 Z M 24.171875 -43.671875 "/></g></g></g><g fill="#000000" fill-opacity="1"><g transform="translate(264.420206, 230.129308)"><g><path d="M 62.8125 -87.703125 C 64.65625 -87.703125 66.035156 -87.640625 66.953125 -87.515625 C 67.867188 -87.398438 68.90625 -87.023438 70.0625 -86.390625 C 71.21875 -85.753906 72.035156 -84.675781 72.515625 -83.15625 C 72.992188 -81.644531 73.234375 -79.613281 73.234375 -77.0625 C 73.234375 -74.507812 72.992188 -72.472656 72.515625 -70.953125 C 72.035156 -69.441406 71.195312 -68.382812 70 -67.78125 C 68.800781 -67.1875 67.742188 -66.828125 66.828125 -66.703125 C 65.910156 -66.585938 64.492188 -66.53125 62.578125 -66.53125 L 25.96875 -66.53125 L 25.96875 -54.4375 L 49.53125 -54.4375 C 51.445312 -54.4375 52.863281 -54.375 53.78125 -54.25 C 54.695312 -54.132812 55.753906 -53.757812 56.953125 -53.125 C 59.023438 -51.925781 60.0625 -48.773438 60.0625 -43.671875 C 60.0625 -38.085938 58.546875 -34.78125 55.515625 -33.75 C 54.242188 -33.34375 52.210938 -33.140625 49.421875 -33.140625 L 25.96875 -33.140625 L 25.96875 -10.53125 C 25.96875 -8.613281 25.90625 -7.21875 25.78125 -6.34375 C 25.664062 -5.46875 25.289062 -4.429688 24.65625 -3.234375 C 23.53125 -1.078125 20.414062 0 15.3125 0 C 9.726562 0 6.457031 -1.515625 5.5 -4.546875 C 5.019531 -5.828125 4.78125 -7.863281 4.78125 -10.65625 L 4.78125 -77.171875 C 4.78125 -81.242188 5.535156 -84.015625 7.046875 -85.484375 C 8.566406 -86.960938 11.441406 -87.703125 15.671875 -87.703125 Z M 62.8125 -87.703125 "/></g></g></g><g fill="#000000" fill-opacity="1"><g transform="translate(335.012781, 230.129308)"><g><path d="M 23.328125 -19.75 C 24.679688 -18.382812 25.359375 -15.59375 25.359375 -11.375 L 25.359375 -10.890625 C 25.359375 -8.972656 25.300781 -7.554688 25.1875 -6.640625 C 25.070312 -5.722656 24.65625 -4.625 23.9375 -3.34375 C 22.738281 -1.03125 19.722656 0.125 14.890625 0.125 C 10.066406 0.125 6.875 -0.628906 5.3125 -2.140625 C 3.757812 -3.660156 2.984375 -6.535156 2.984375 -10.765625 L 2.984375 -11.25 C 2.984375 -13.082031 3.039062 -14.476562 3.15625 -15.4375 C 3.28125 -16.394531 3.664062 -17.472656 4.3125 -18.671875 C 5.507812 -21.054688 8.519531 -22.25 13.34375 -22.25 C 18.164062 -22.25 21.492188 -21.414062 23.328125 -19.75 Z M 23.328125 -19.75 "/></g></g></g></svg>